<svg width="18" height="18" viewBox="0 0 18 18" fill="none" xmlns="http://www.w3.org/2000/svg">
<g id="Frame">
<path id="Vector" d="M15.9213 13.7912C15.6619 14.3904 15.3548 14.9421 14.999 15.4493C14.5141 16.1407 14.117 16.6193 13.811 16.885C13.3367 17.3213 12.8285 17.5447 12.2842 17.5574C11.8935 17.5574 11.4223 17.4462 10.8739 17.2207C10.3236 16.9962 9.8179 16.885 9.35551 16.885C8.87057 16.885 8.35047 16.9962 7.79417 17.2207C7.23701 17.4462 6.78818 17.5637 6.44501 17.5754C5.92312 17.5976 5.40292 17.3679 4.88367 16.885C4.55226 16.596 4.13773 16.1004 3.64114 15.3984C3.10834 14.6488 2.67031 13.7795 2.32714 12.7884C1.95963 11.718 1.77539 10.6814 1.77539 9.67784C1.77539 8.52827 2.02379 7.53679 2.52133 6.70593C2.91236 6.03855 3.43256 5.51211 4.08363 5.12564C4.7347 4.73917 5.43818 4.54222 6.19577 4.52962C6.6103 4.52962 7.1539 4.65785 7.82943 4.90985C8.50305 5.16269 8.93558 5.29092 9.12521 5.29092C9.26699 5.29092 9.74749 5.14099 10.562 4.84208C11.3323 4.56488 11.9824 4.45011 12.515 4.49532C13.9582 4.61179 15.0425 5.1807 15.7635 6.20564C14.4728 6.98768 13.8343 8.08304 13.847 9.4882C13.8587 10.5827 14.2557 11.4935 15.0361 12.2167C15.3897 12.5523 15.7847 12.8117 16.2241 12.996C16.1288 13.2723 16.0282 13.537 15.9213 13.7912ZM12.6114 0.766566C12.6114 1.62444 12.298 2.42542 11.6733 3.16681C10.9194 4.04818 10.0075 4.55747 9.0187 4.47711C9.0061 4.37419 8.99879 4.26587 8.99879 4.15205C8.99879 3.3285 9.35731 2.44713 9.99398 1.7265C10.3118 1.36162 10.7161 1.05824 11.2063 0.816224C11.6955 0.57782 12.1582 0.445975 12.5934 0.423401C12.6061 0.538082 12.6114 0.652784 12.6114 0.766566Z" fill="#4A885B"/>
</g>
</svg>
