<svg width="15" height="15" viewBox="0 0 15 15" fill="none" xmlns="http://www.w3.org/2000/svg">
<g id="calendar-minus-01" clip-path="url(#clip0_4_1917)">
<path id="Icon" d="M5.83943 8.96392H9.41104M12.9827 4.79704H2.26782M10.0063 1.22543V3.01124M5.24416 1.22543V3.01124M5.12511 13.1308H10.1254C11.1255 13.1308 11.6256 13.1308 12.0076 12.9362C12.3436 12.7649 12.6168 12.4918 12.788 12.1557C12.9827 11.7737 12.9827 11.2737 12.9827 10.2735V5.27326C12.9827 4.27311 12.9827 3.77304 12.788 3.39104C12.6168 3.05502 12.3436 2.78182 12.0076 2.61061C11.6256 2.41597 11.1255 2.41597 10.1254 2.41597H5.12511C4.12497 2.41597 3.62489 2.41597 3.24289 2.61061C2.90687 2.78182 2.63367 3.05502 2.46246 3.39104C2.26782 3.77304 2.26782 4.27311 2.26782 5.27326V10.2735C2.26782 11.2737 2.26782 11.7737 2.46246 12.1557C2.63367 12.4918 2.90687 12.7649 3.24289 12.9362C3.62489 13.1308 4.12497 13.1308 5.12511 13.1308Z" stroke="#5E5E5E" stroke-width="1.29877" stroke-linecap="round" stroke-linejoin="round"/>
</g>
<defs>
<clipPath id="clip0_4_1917">
<rect width="14.2864" height="14.2864" fill="white" transform="translate(0.482025 0.0349121)"/>
</clipPath>
</defs>
</svg>
