<svg width="20" height="24" viewBox="0 0 20 24" fill="none" xmlns="http://www.w3.org/2000/svg">
<g id="Group">
<path id="Vector" d="M6.86926 11.0309H1.25491C0.561874 11.0309 6.10352e-05 11.5927 6.10352e-05 12.2857V22.7447C6.10352e-05 23.4378 0.561874 23.9996 1.25491 23.9996H6.86926C7.56229 23.9996 8.12411 23.4378 8.12411 22.7447V12.2857C8.12411 11.5927 7.56229 11.0309 6.86926 11.0309Z" fill="#B6EC2E"/>
<path id="Vector_2" d="M19.1549 9.37844V22.7452C19.1549 23.4382 18.593 24 17.9 24H12.2852C11.5922 24 11.0304 23.4382 11.0304 22.7452V9.37844C11.0304 8.68544 10.4685 8.12359 9.77554 8.12359H1.25485C0.561844 8.12405 0 7.5622 0 6.8692V1.25485C0 0.561844 0.561844 0 1.25485 0H11.7143C12.4073 0 12.9692 0.561844 12.9692 1.25485V6.86966C12.9692 7.56266 13.531 8.1245 14.224 8.1245H17.9009C18.5939 8.1245 19.1558 8.68634 19.1558 9.37935L19.1549 9.37844Z" fill="#154B2C"/>
</g>
</svg>
