<svg width="15" height="15" viewBox="0 0 15 15" fill="none" xmlns="http://www.w3.org/2000/svg">
<g id="globe-05" clip-path="url(#clip0_4_1920)">
<path id="Icon" d="M9.41106 1.77206C8.84732 1.595 8.24744 1.49954 7.62526 1.49954C4.33768 1.49954 1.67258 4.16465 1.67258 7.45223C1.67258 10.7398 4.33768 13.4049 7.62526 13.4049C10.9128 13.4049 13.5779 10.7398 13.5779 7.45223C13.5779 6.43115 13.3209 5.47011 12.8679 4.63032M10.6016 3.7318H10.6046M6.73239 13.3384L6.73245 12.0268C6.73246 11.9558 6.75787 11.8871 6.8041 11.8331L8.28381 10.1068C8.40542 9.96489 8.36774 9.74736 8.2055 9.65465L6.50528 8.68308C6.45909 8.65669 6.42081 8.61839 6.39445 8.57218L5.28613 6.62994C5.22845 6.52886 5.11714 6.47067 5.00122 6.48099L1.71078 6.77406M12.9827 3.88062C12.9827 5.19565 11.7921 6.26169 10.6016 7.45223C9.41106 6.26169 8.22053 5.19565 8.22053 3.88062C8.22053 2.56558 9.28657 1.49954 10.6016 1.49954C11.9166 1.49954 12.9827 2.56558 12.9827 3.88062ZM10.7504 3.7318C10.7504 3.81399 10.6838 3.88062 10.6016 3.88062C10.5194 3.88062 10.4528 3.81399 10.4528 3.7318C10.4528 3.64961 10.5194 3.58298 10.6016 3.58298C10.6838 3.58298 10.7504 3.64961 10.7504 3.7318Z" stroke="#5E5E5E" stroke-width="1.29877" stroke-linecap="round" stroke-linejoin="round"/>
</g>
<defs>
<clipPath id="clip0_4_1920">
<rect width="14.2864" height="14.2864" fill="white" transform="translate(0.482025 0.309021)"/>
</clipPath>
</defs>
</svg>
