<svg width="20" height="24" viewBox="0 0 20 24" fill="none" xmlns="http://www.w3.org/2000/svg">
<g id="Group">
<path id="Vector" d="M6.94388 11.0308H1.32952C0.63649 11.0308 0.0746765 11.5926 0.0746765 12.2857V22.7447C0.0746765 23.4377 0.63649 23.9995 1.32952 23.9995H6.94388C7.63691 23.9995 8.19872 23.4377 8.19872 22.7447V12.2857C8.19872 11.5926 7.63691 11.0308 6.94388 11.0308Z" fill="#0A4020"/>
<path id="Vector_2" d="M19.2295 9.37844V22.7452C19.2295 23.4382 18.6677 24 17.9747 24H12.3598C11.6668 24 11.105 23.4382 11.105 22.7452V9.37844C11.105 8.68544 10.5432 8.12359 9.85015 8.12359H1.32946C0.636459 8.12405 0.0746155 7.5622 0.0746155 6.8692V1.25485C0.0746155 0.561844 0.636459 0 1.32946 0H11.7889C12.4819 0 13.0438 0.561844 13.0438 1.25485V6.86966C13.0438 7.56266 13.6056 8.1245 14.2986 8.1245H17.9756C18.6686 8.1245 19.2304 8.68634 19.2304 9.37935L19.2295 9.37844Z" fill="#0A4020"/>
</g>
</svg>
