<svg width="26" height="25" viewBox="0 0 26 25" fill="none" xmlns="http://www.w3.org/2000/svg">
<g id="Group 13">
<rect id="Rectangle 2" x="0.988098" y="0.0518799" width="24.6766" height="24.6766" rx="2.59753" fill="#414141"/>
<g id="Group">
<path id="Vector" d="M11.3715 11.7589H7.63041C7.16861 11.7589 6.79425 12.1332 6.79425 12.595V19.5643C6.79425 20.0261 7.16861 20.4004 7.63041 20.4004H11.3715C11.8333 20.4004 12.2076 20.0261 12.2076 19.5643V12.595C12.2076 12.1332 11.8333 11.7589 11.3715 11.7589Z" fill="white"/>
<path id="Vector_2" d="M19.5579 10.6538V19.5606C19.5579 20.0223 19.1836 20.3967 18.7218 20.3967H14.9804C14.5186 20.3967 14.1443 20.0223 14.1443 19.5606V10.6538C14.1443 10.192 13.7699 9.81762 13.3081 9.81762H7.63041C7.16863 9.81793 6.79425 9.44355 6.79425 8.98177V5.2407C6.79425 4.77892 7.16863 4.40454 7.63041 4.40454H14.6C15.0618 4.40454 15.4361 4.77892 15.4361 5.2407V8.98207C15.4361 9.44385 15.8105 9.81823 16.2723 9.81823H18.7224C19.1842 9.81823 19.5585 10.1926 19.5585 10.6544L19.5579 10.6538Z" fill="white"/>
</g>
</g>
</svg>
