<svg width="15" height="15" viewBox="0 0 15 15" fill="none" xmlns="http://www.w3.org/2000/svg">
<g id="home-04">
<g id="Icon">
<path d="M7.62524 10.1517C8.61151 10.1517 9.41104 9.35215 9.41104 8.36587C9.41104 7.3796 8.61151 6.58007 7.62524 6.58007C6.63896 6.58007 5.83943 7.3796 5.83943 8.36587C5.83943 9.35215 6.63896 10.1517 7.62524 10.1517Z" stroke="#138232" stroke-width="1.29877" stroke-linecap="round" stroke-linejoin="round"/>
<path d="M2.26782 6.91644C2.26782 6.57454 2.26782 6.40359 2.31189 6.24616C2.35092 6.10671 2.41507 5.97555 2.50118 5.85912C2.5984 5.72769 2.73333 5.62273 3.00321 5.41283L7.0405 2.27272C7.24964 2.11006 7.3542 2.02873 7.46967 1.99746C7.57155 1.96988 7.67893 1.96988 7.78081 1.99746C7.89627 2.02873 8.00084 2.11006 8.20997 2.27272L12.2473 5.41283C12.5171 5.62273 12.6521 5.72769 12.7493 5.85912C12.8354 5.97555 12.8996 6.10671 12.9386 6.24616C12.9827 6.40359 12.9827 6.57454 12.9827 6.91644V11.2232C12.9827 11.8899 12.9827 12.2233 12.8529 12.478C12.7388 12.702 12.5566 12.8841 12.3326 12.9983C12.0779 13.128 11.7446 13.128 11.0778 13.128H4.17268C3.50592 13.128 3.17254 13.128 2.91787 12.9983C2.69385 12.8841 2.51172 12.702 2.39758 12.478C2.26782 12.2233 2.26782 11.8899 2.26782 11.2232V6.91644Z" stroke="#138232" stroke-width="1.29877" stroke-linecap="round" stroke-linejoin="round"/>
</g>
</g>
</svg>
