<svg width="77" height="16" viewBox="0 0 77 16" fill="none" xmlns="http://www.w3.org/2000/svg">
<g id="Intense">
<path id="Vector" d="M71.3786 15.7548C67.6806 15.7548 65.0703 13.275 65.0703 9.64234V9.59883C65.0703 6.18369 67.5284 3.44287 71.0088 3.44287C75.0548 3.44287 76.9255 6.42297 76.9255 9.88162C76.9255 10.1426 76.9255 10.4472 76.9037 10.73H69.0293C69.3556 12.0351 70.2692 12.6659 71.5743 12.6659C72.5967 12.6659 73.3363 12.3179 74.1846 11.4696L76.4687 13.362C75.3375 14.8194 73.7278 15.7548 71.3786 15.7548ZM68.964 8.61997H73.0753C72.923 7.31482 72.1399 6.48822 71.0088 6.48822C69.8994 6.48822 69.2033 7.31482 68.964 8.61997Z" fill="#0A4020"/>
<path id="Vector_2" d="M59.4653 15.733C57.4641 15.733 55.5499 15.1675 53.9184 13.9711L55.4629 11.4913C56.8333 12.3831 58.2689 12.8399 59.4871 12.8399C60.2049 12.8399 60.5529 12.6224 60.5529 12.2091V12.1656C60.5529 11.6653 59.8786 11.4913 58.6387 11.1432C56.3112 10.5559 54.4622 9.75108 54.4622 7.40181V7.3583C54.4622 4.85676 56.4852 3.4646 59.1825 3.4646C60.9227 3.4646 62.6629 3.96491 64.0333 4.83501L62.6194 7.44531C61.4013 6.74923 60.0744 6.33593 59.139 6.33593C58.5082 6.33593 58.1819 6.57521 58.1819 6.92325V6.96675C58.1819 7.42356 58.878 7.64108 60.0961 8.01088C62.4237 8.6417 64.2726 9.4683 64.2726 11.7523V11.7958C64.2726 14.3844 62.3367 15.733 59.4653 15.733Z" fill="#0A4020"/>
<path id="Vector_3" d="M41.4371 15.472V3.7039H45.5701V5.35709C46.3314 4.37823 47.419 3.44287 49.094 3.44287C51.6173 3.44287 53.0964 5.07431 53.0964 7.77162V15.472H48.9852V9.09853C48.9852 7.79338 48.3326 7.09729 47.3103 7.09729C46.2879 7.09729 45.5701 7.79338 45.5701 9.09853V15.472H41.4371Z" fill="#0A4020"/>
<path id="Vector_4" d="M34.5318 15.7548C30.8339 15.7548 28.2236 13.275 28.2236 9.64234V9.59883C28.2236 6.18369 30.6816 3.44287 34.162 3.44287C38.208 3.44287 40.0787 6.42297 40.0787 9.88162C40.0787 10.1426 40.0787 10.4472 40.057 10.73H32.1826C32.5088 12.0351 33.4225 12.6659 34.7276 12.6659C35.75 12.6659 36.4896 12.3179 37.3379 11.4696L39.6219 13.362C38.4908 14.8194 36.8811 15.7548 34.5318 15.7548ZM32.1173 8.61997H36.2285C36.0763 7.31482 35.2932 6.48822 34.162 6.48822C33.0527 6.48822 32.3566 7.31482 32.1173 8.61997Z" fill="#0A4020"/>
<path id="Vector_5" d="M24.7428 15.7113C22.2413 15.7113 20.8056 14.6237 20.8056 11.8176V7.0103H19.4135V3.70391H20.8056V0.723816H24.9169V3.70391H27.6577V7.0103H24.9169V11.0128C24.9169 11.8611 25.2867 12.1874 26.048 12.1874C26.5918 12.1874 27.1139 12.0351 27.6142 11.7959V15.0152C26.8528 15.4285 25.8957 15.7113 24.7428 15.7113Z" fill="#0A4020"/>
<path id="Vector_6" d="M6.7146 15.472V3.7039H10.8476V5.35709C11.6089 4.37823 12.6965 3.44287 14.3715 3.44287C16.8948 3.44287 18.3739 5.07431 18.3739 7.77162V15.472H14.2627V9.09853C14.2627 7.79338 13.6101 7.09729 12.5878 7.09729C11.5654 7.09729 10.8476 7.79338 10.8476 9.09853V15.472H6.7146Z" fill="#0A4020"/>
<path id="Vector_7" d="M0.381409 15.472V0.245239H4.6014V15.472H0.381409Z" fill="#0A4020"/>
</g>
</svg>
