<svg width="16" height="17" viewBox="0 0 16 17" fill="none" xmlns="http://www.w3.org/2000/svg">
<g id="laptop-01" clip-path="url(#clip0_4_1948)">
<path id="Icon" d="M1.9744 11.0919V5.37734C1.9744 4.64997 1.9744 4.28628 2.11595 4.00846C2.24047 3.76408 2.43916 3.56539 2.68354 3.44087C2.96136 3.29932 3.32505 3.29932 4.05242 3.29932H11.5853C12.3127 3.29932 12.6763 3.29932 12.9542 3.44087C13.1985 3.56539 13.3972 3.76408 13.5217 4.00846C13.6633 4.28628 13.6633 4.64997 13.6633 5.37734V11.0919H10.1974C10.0385 11.0919 9.95912 11.0919 9.88439 11.1099C9.81813 11.1258 9.75478 11.152 9.69668 11.1876C9.63115 11.2278 9.57499 11.2839 9.46268 11.3962L9.42194 11.437C9.30962 11.5493 9.25347 11.6055 9.18793 11.6456C9.12983 11.6812 9.06649 11.7075 9.00023 11.7234C8.92549 11.7413 8.84608 11.7413 8.68724 11.7413H6.95046C6.79162 11.7413 6.71221 11.7413 6.63747 11.7234C6.57121 11.7075 6.50786 11.6812 6.44976 11.6456C6.38423 11.6055 6.32807 11.5493 6.21576 11.437L6.17502 11.3962C6.06271 11.2839 6.00655 11.2278 5.94102 11.1876C5.88291 11.152 5.81957 11.1258 5.75331 11.1099C5.67857 11.0919 5.59916 11.0919 5.44032 11.0919H1.9744ZM1.9744 11.0919C1.61575 11.0919 1.32501 11.3827 1.32501 11.7413V11.9578C1.32501 12.3604 1.32501 12.5617 1.36927 12.7268C1.48936 13.175 1.83944 13.5251 2.28763 13.6452C2.45279 13.6895 2.6541 13.6895 3.0567 13.6895H12.581C12.9836 13.6895 13.1849 13.6895 13.3501 13.6452C13.7983 13.5251 14.1483 13.175 14.2684 12.7268C14.3127 12.5617 14.3127 12.3604 14.3127 11.9578C14.3127 11.7565 14.3127 11.6558 14.2906 11.5732C14.2305 11.3491 14.0555 11.1741 13.8314 11.114C13.7488 11.0919 13.6481 11.0919 13.4468 11.0919H13.0139" stroke="white" stroke-width="1.29877" stroke-linecap="round" stroke-linejoin="round"/>
</g>
<defs>
<clipPath id="clip0_4_1948">
<rect width="15.5852" height="15.5852" fill="white" transform="translate(0.0262451 0.701782)"/>
</clipPath>
</defs>
</svg>
