<svg width="16" height="17" viewBox="0 0 16 17" fill="none" xmlns="http://www.w3.org/2000/svg">
<g id="lightbulb-05" clip-path="url(#clip0_4_1957)">
<path id="Icon" d="M7.82678 2.00052V2.6499M1.98233 8.49436H1.33295M3.60579 4.27336L3.2161 3.88367M12.0478 4.27336L12.4376 3.88367M14.3206 8.49436H13.6712M6.52802 9.46843H9.12555M7.82678 9.46843V12.7153M10.0996 11.6594C11.0828 10.9521 11.7231 9.79801 11.7231 8.49436C11.7231 6.34249 9.97865 4.59805 7.82678 4.59805C5.67492 4.59805 3.93048 6.34249 3.93048 8.49436C3.93048 9.79801 4.57073 10.9521 5.55394 11.6594V12.9102C5.55394 13.6375 5.55394 14.0012 5.6955 14.2791C5.82002 14.5234 6.0187 14.7221 6.26308 14.8466C6.5409 14.9882 6.90459 14.9882 7.63197 14.9882H8.0216C8.74898 14.9882 9.11267 14.9882 9.39049 14.8466C9.63487 14.7221 9.83355 14.5234 9.95807 14.2791C10.0996 14.0012 10.0996 13.6375 10.0996 12.9102V11.6594Z" stroke="white" stroke-width="1.29877" stroke-linecap="round" stroke-linejoin="round"/>
</g>
<defs>
<clipPath id="clip0_4_1957">
<rect width="15.5852" height="15.5852" fill="white" transform="translate(0.0341797 0.701752)"/>
</clipPath>
</defs>
</svg>
