<svg width="16" height="18" viewBox="0 0 16 18" fill="none" xmlns="http://www.w3.org/2000/svg">
<g id="linux-svgrepo-com 1" clip-path="url(#clip0_4_2055)">
<path id="Vector" d="M1.76411 17.0173C2.71173 17.1305 3.77646 17.7443 4.6675 17.8527C5.56333 17.9658 5.84055 17.2427 5.84055 17.2427C5.84055 17.2427 6.84863 17.0173 7.90845 16.9913C8.9693 16.9616 9.97351 17.212 9.97351 17.212C9.97351 17.212 10.1682 17.658 10.5318 17.8527C10.8953 18.0512 11.678 18.0781 12.1796 17.5496C12.6822 17.0173 14.0231 16.3468 14.776 15.9276C15.5338 15.5075 15.3947 14.8668 14.919 14.6721C14.4432 14.4774 14.0538 14.1705 14.0835 13.5815C14.1094 12.9974 13.6634 12.608 13.6634 12.608C13.6634 12.608 14.0538 11.3228 13.6903 10.2581C13.3268 9.19828 12.1278 7.49384 11.2061 6.21242C10.2844 4.92717 11.067 3.44336 10.2278 1.54709C9.3885 -0.352033 7.21221 -0.239776 6.03916 0.569693C4.86612 1.37922 5.22576 3.38672 5.28234 4.33919C5.33893 5.28681 5.30824 5.96492 5.19986 6.20859C5.09148 6.45604 4.33472 7.35478 3.83213 8.10772C3.33052 8.86448 2.96694 10.4269 2.59959 11.0715C2.23989 11.7123 2.49121 12.2964 2.49121 12.2964C2.49121 12.2964 2.23995 12.3827 2.04139 12.8028C1.84665 13.2181 1.45723 13.4166 0.756084 13.5519C0.0597274 13.6948 0.0597274 14.1437 0.227599 14.6463C0.396383 15.1479 0.227599 15.429 0.032861 16.0697C-0.16182 16.7104 0.812668 16.905 1.76411 17.0173ZM11.6146 14.0947C12.1124 14.3124 12.828 14.0093 13.0457 13.7916C13.2625 13.5748 13.4159 13.2525 13.4159 13.2525C13.4159 13.2525 13.6337 13.3609 13.6116 13.7052C13.5885 14.0544 13.7612 14.5522 14.0873 14.7248C14.4134 14.8965 14.9112 15.1363 14.6532 15.3761C14.3904 15.6159 12.9363 16.2009 12.5019 16.6575C12.0712 17.1111 11.5053 17.4823 11.1609 17.373C10.8128 17.2646 10.5087 16.7889 10.6584 16.0925C10.8128 15.3991 10.9433 14.6385 10.9212 14.204C10.8982 13.7695 10.8128 13.1844 10.9212 13.0981C11.0296 13.0127 11.2022 13.0539 11.2022 13.0539C11.2022 13.0539 11.1158 13.878 11.6146 14.0947ZM8.38423 2.35662C8.86378 2.35662 9.25034 2.83234 9.25034 3.41741C9.25034 3.83272 9.05561 4.19242 8.77074 4.36509C8.69881 4.33537 8.62398 4.30177 8.54149 4.2672C8.71416 4.18187 8.834 3.96415 8.834 3.71282C8.834 3.38387 8.63168 3.11338 8.37744 3.11338C8.13 3.11338 7.92374 3.38381 7.92374 3.71282C7.92374 3.83278 7.95352 3.95262 8.0024 4.04663C7.85278 3.98616 7.71754 3.93443 7.60916 3.89319C7.55258 3.75024 7.51898 3.5891 7.51898 3.41746C7.51903 2.83239 7.90458 2.35662 8.38423 2.35662ZM7.19675 4.18478C7.43273 4.22602 8.08106 4.50706 8.32092 4.59336C8.56072 4.67585 8.82636 4.82929 8.80046 4.98278C8.77074 5.14102 8.64702 5.14102 8.32092 5.33957C7.99863 5.53431 7.29464 5.96879 7.06921 5.99851C6.84475 6.02823 6.71721 5.9016 6.47735 5.74719C6.23755 5.58987 5.78778 5.22253 5.9009 5.02785C5.9009 5.02785 6.2529 4.75833 6.40639 4.62023C6.55989 4.47729 6.95695 4.14063 7.19675 4.18478ZM6.16277 2.52546C6.54067 2.52546 6.84858 2.97528 6.84858 3.52966C6.84858 3.6304 6.83705 3.72434 6.81886 3.81835C6.72485 3.84807 6.63091 3.89701 6.54067 3.97567C6.49657 4.01309 6.45528 4.04663 6.41792 4.08405C6.47735 3.97185 6.5004 3.81071 6.47353 3.64186C6.42174 3.34263 6.21936 3.12108 6.0208 3.1508C5.82127 3.18439 5.70234 3.4587 5.75031 3.76182C5.80307 4.06876 6.00157 4.29025 6.20395 4.25671C6.21548 4.25289 6.22603 4.24906 6.23755 4.24519C6.1407 4.33919 6.05051 4.42167 5.95651 4.48881C5.68317 4.36121 5.48079 3.97949 5.48079 3.52966C5.48085 2.97146 5.78391 2.52546 6.16277 2.52546ZM4.05745 9.78238C4.44686 9.16857 4.69813 7.82668 5.08755 7.38067C5.48085 6.93564 5.7839 5.98705 5.64581 5.56791C5.64581 5.56791 6.48505 6.57212 7.06921 6.40715C7.65428 6.23831 8.9693 5.26097 9.16398 5.42884C9.35872 5.59763 11.0334 9.28077 11.2022 10.4538C11.371 11.6259 11.09 12.5218 11.09 12.5218C11.09 12.5218 10.4493 12.3529 10.3667 12.7424C10.2843 13.1356 10.2843 14.56 10.2843 14.56C10.2843 14.56 9.41816 15.7589 8.07724 15.9574C6.73632 16.1522 6.06489 16.0102 6.06489 16.0102L5.31195 15.1479C5.31195 15.1479 5.89707 15.0616 5.81454 14.4736C5.73205 13.8895 4.02664 13.0799 3.71971 12.3529C3.41288 11.6258 3.66324 10.3972 4.05745 9.78238ZM0.741653 14.181C0.80879 13.8933 1.67775 13.8933 2.01156 13.6909C2.34536 13.4886 2.41244 12.9073 2.68202 12.7539C2.94766 12.5966 3.43878 13.1548 3.64116 13.4693C3.83972 13.7763 4.60036 15.1182 4.91112 15.4519C5.2257 15.7886 5.51444 16.2346 5.42426 16.6355C5.33893 17.0364 4.86606 17.329 4.86606 17.329C4.4431 17.4594 3.26332 16.9501 2.72719 16.7256C2.19106 16.5003 0.8271 16.4331 0.651585 16.2346C0.471278 16.0322 0.737888 15.5862 0.808847 15.1632C0.872105 14.7354 0.673603 14.4697 0.741653 14.181Z" fill="#4A885B"/>
</g>
<defs>
<clipPath id="clip0_4_2055">
<rect width="15.3176" height="18" fill="white"/>
</clipPath>
</defs>
</svg>
