<svg width="30" height="37" viewBox="0 0 30 37" fill="none" xmlns="http://www.w3.org/2000/svg">
<g id="Group">
<path id="Vector" d="M10.59 17.0057H1.93455C0.866129 17.0057 0 17.8719 0 18.9403V35.0646C0 36.133 0.866129 36.9992 1.93455 36.9992H10.59C11.6584 36.9992 12.5246 36.133 12.5246 35.0646V18.9403C12.5246 17.8719 11.6584 17.0057 10.59 17.0057Z" fill="#B6EC2E"/>
<path id="Vector_2" d="M29.5305 14.4584V35.0654C29.5305 36.1338 28.6643 37 27.5959 37H18.9397C17.8714 37 17.0052 36.1338 17.0052 35.0654V14.4584C17.0052 13.39 16.139 12.5239 15.0706 12.5239H1.93455C0.866176 12.5246 0 11.6584 0 10.59V1.93455C0 0.866176 0.866176 0 1.93455 0H18.0596C19.1279 0 19.9941 0.866176 19.9941 1.93455V10.5907C19.9941 11.6591 20.8603 12.5253 21.9287 12.5253H27.5973C28.6657 12.5253 29.5318 13.3914 29.5318 14.4598L29.5305 14.4584Z" fill="#F0FDF4"/>
</g>
</svg>
