<svg width="119" height="25" viewBox="0 0 119 25" fill="none" xmlns="http://www.w3.org/2000/svg">
<g id="Intense">
<path id="Vector" d="M109.552 24.4555C103.851 24.4555 99.8268 20.6325 99.8268 15.0321V14.965C99.8268 9.70003 103.616 5.47461 108.982 5.47461C115.219 5.47461 118.103 10.0689 118.103 15.401C118.103 15.8034 118.103 16.2729 118.07 16.7089H105.93C106.433 18.721 107.842 19.6935 109.854 19.6935C111.43 19.6935 112.57 19.1569 113.878 17.8491L117.399 20.7666C115.655 23.0135 113.174 24.4555 109.552 24.4555ZM105.83 13.456H112.168C111.933 11.4439 110.726 10.1695 108.982 10.1695C107.272 10.1695 106.198 11.4439 105.83 13.456Z" fill="#F0FDF4"/>
<path id="Vector_2" d="M91.1856 24.4215C88.1004 24.4215 85.1493 23.5496 82.6342 21.7052L85.0151 17.8822C87.1279 19.2571 89.3412 19.9613 91.2191 19.9613C92.3258 19.9613 92.8624 19.626 92.8624 18.9888V18.9217C92.8624 18.1504 91.8228 17.8822 89.9113 17.3456C86.323 16.4401 83.4725 15.1993 83.4725 11.5775V11.5105C83.4725 7.65394 86.5913 5.50769 90.7497 5.50769C93.4325 5.50769 96.1153 6.279 98.228 7.6204L96.0482 11.6446C94.1702 10.5715 92.1246 9.93433 90.6826 9.93433C89.7101 9.93433 89.207 10.3032 89.207 10.8398V10.9068C89.207 11.6111 90.2802 11.9464 92.1581 12.5165C95.7464 13.4891 98.5969 14.7634 98.5969 18.2846V18.3516C98.5969 22.3423 95.6123 24.4215 91.1856 24.4215Z" fill="#F0FDF4"/>
<path id="Vector_3" d="M63.3921 24.0195V5.87703H69.7638V8.4257C70.9375 6.91662 72.6143 5.47461 75.1965 5.47461C79.0865 5.47461 81.3669 7.98974 81.3669 12.1481V24.0195H75.0288V14.1937C75.0288 12.1816 74.0227 11.1085 72.4466 11.1085C70.8704 11.1085 69.7638 12.1816 69.7638 14.1937V24.0195H63.3921Z" fill="#F0FDF4"/>
<path id="Vector_4" d="M52.7464 24.4555C47.0455 24.4555 43.0212 20.6325 43.0212 15.0321V14.965C43.0212 9.70003 46.8107 5.47461 52.1763 5.47461C58.4139 5.47461 61.2979 10.0689 61.2979 15.401C61.2979 15.8034 61.2979 16.2729 61.2644 16.7089H49.1246C49.6277 18.721 51.0361 19.6935 53.0482 19.6935C54.6244 19.6935 55.7646 19.1569 57.0725 17.8491L60.5937 20.7666C58.8498 23.0135 56.3682 24.4555 52.7464 24.4555ZM49.024 13.456H55.3622C55.1274 11.4439 53.9202 10.1695 52.1763 10.1695C50.466 10.1695 49.3929 11.4439 49.024 13.456Z" fill="#F0FDF4"/>
<path id="Vector_5" d="M37.6552 24.3881C33.7987 24.3881 31.5853 22.7113 31.5853 18.3853V10.974H29.4391V5.87667H31.5853V1.28235H37.9235V5.87667H42.1489V10.974H37.9235V17.1445C37.9235 18.4523 38.4936 18.9554 39.6673 18.9554C40.5057 18.9554 41.3105 18.7206 42.0818 18.3517V23.3149C40.9081 23.9521 39.4326 24.3881 37.6552 24.3881Z" fill="#F0FDF4"/>
<path id="Vector_6" d="M9.86169 24.0195V5.87703H16.2334V8.4257C17.4071 6.91662 19.0839 5.47461 21.6661 5.47461C25.5561 5.47461 27.8365 7.98974 27.8365 12.1481V24.0195H21.4984V14.1937C21.4984 12.1816 20.4923 11.1085 18.9162 11.1085C17.34 11.1085 16.2334 12.1816 16.2334 14.1937V24.0195H9.86169Z" fill="#F0FDF4"/>
<path id="Vector_7" d="M0.0979004 24.0192V0.544556H6.60372V24.0192H0.0979004Z" fill="#F0FDF4"/>
</g>
</svg>
